<svg fill="none" height="389" viewBox="0 0 703 389" width="703" xmlns="http://www.w3.org/2000/svg"><path d="m47.182 262.602c0 6.2-1.8393 11.139-5.518 14.818-4.1333 4.381-9.5687 6.572-16.306 6.572-6.448 0-11.904-2.232-16.368-6.696s-6.696-9.961-6.696-16.492 2.232-12.028 6.696-16.492 9.92-6.696 16.368-6.696c3.2653 0 6.3447.579 9.238 1.736s5.27 2.79 7.13 4.898l-4.092 4.092c-1.364-1.653-3.1413-2.935-5.332-3.844-2.1493-.951-4.464-1.426-6.944-1.426-4.836 0-8.928 1.674-12.276 5.022-3.30667 3.389-4.96 7.626-4.96 12.71s1.65333 9.321 4.96 12.71c3.348 3.348 7.44 5.022 12.276 5.022 4.4227 0 8.1013-1.24 11.036-3.72s4.6293-5.89 5.084-10.23h-16.12v-5.332h21.514c.2067 1.157.31 2.273.31 3.348zm3.8997 5.208c0-4.671 1.4673-8.535 4.402-11.594 2.976-3.059 6.7167-4.588 11.222-4.588s8.2253 1.529 11.16 4.588c2.976 3.059 4.464 6.923 4.464 11.594 0 4.712-1.488 8.577-4.464 11.594-2.9347 3.059-6.6547 4.588-11.16 4.588s-8.246-1.529-11.222-4.588c-2.9347-3.059-4.402-6.923-4.402-11.594zm5.704 0c0 3.265.9507 5.911 2.852 7.936s4.2573 3.038 7.068 3.038 5.1667-1.013 7.068-3.038 2.852-4.671 2.852-7.936c0-3.224-.9507-5.849-2.852-7.874-1.9427-2.067-4.2987-3.1-7.068-3.1s-5.1253 1.033-7.068 3.1c-1.9013 2.025-2.852 4.65-2.852 7.874zm28.9894 0c0-4.671 1.4673-8.535 4.402-11.594 2.976-3.059 6.7166-4.588 11.2219-4.588 4.505 0 8.225 1.529 11.16 4.588 2.976 3.059 4.464 6.923 4.464 11.594 0 4.712-1.488 8.577-4.464 11.594-2.935 3.059-6.655 4.588-11.16 4.588-4.5053 0-8.2459-1.529-11.2219-4.588-2.9347-3.059-4.402-6.923-4.402-11.594zm5.704 0c0 3.265.9506 5.911 2.852 7.936 1.9013 2.025 4.2573 3.038 7.0679 3.038 2.811 0 5.167-1.013 7.068-3.038s2.852-4.671 2.852-7.936c0-3.224-.951-5.849-2.852-7.874-1.943-2.067-4.299-3.1-7.068-3.1-2.7693 0-5.1253 1.033-7.0679 3.1-1.9014 2.025-2.852 4.65-2.852 7.874zm44.3649 10.974c2.811 0 5.105-1.013 6.882-3.038 1.86-2.025 2.79-4.671 2.79-7.936 0-3.183-.93-5.807-2.79-7.874-1.818-2.067-4.112-3.1-6.882-3.1-2.728 0-5.022 1.033-6.882 3.1s-2.79 4.691-2.79 7.874c0 3.224.93 5.849 2.79 7.874 1.86 2.067 4.154 3.1 6.882 3.1zm-.186 18.6c-1.694 0-3.286-.227-4.774-.682-1.488-.413-2.852-1.013-4.092-1.798-1.198-.785-2.232-1.715-3.1-2.79s-1.529-2.273-1.984-3.596l5.394-2.232c.62 1.777 1.695 3.203 3.224 4.278 1.53 1.075 3.307 1.612 5.332 1.612 3.1 0 5.518-.93 7.254-2.79s2.604-4.423 2.604-7.688v-2.914h-.248c-1.074 1.612-2.542 2.893-4.402 3.844-1.818.909-3.802 1.364-5.952 1.364-3.968 0-7.378-1.55-10.23-4.65-2.81-3.183-4.216-7.027-4.216-11.532s1.406-8.329 4.216-11.47c2.852-3.141 6.262-4.712 10.23-4.712 2.15 0 4.134.475 5.952 1.426 1.86.909 3.328 2.17 4.402 3.782h.248v-4.216h5.456v29.078c0 4.877-1.384 8.701-4.154 11.47-2.81 2.811-6.53 4.216-11.16 4.216zm27.973-58.776v44.392h-5.704v-44.392zm20.288 45.384c-4.464 0-8.143-1.529-11.036-4.588-2.894-3.059-4.34-6.923-4.34-11.594 0-4.629 1.405-8.473 4.216-11.532 2.81-3.1 6.406-4.65 10.788-4.65 4.505 0 8.08 1.467 10.726 4.402 2.686 2.893 4.03 6.965 4.03 12.214l-.062.62h-23.87c.082 2.976 1.074 5.373 2.976 7.192 1.901 1.819 4.174 2.728 6.82 2.728 3.637 0 6.489-1.819 8.556-5.456l5.084 2.48c-1.364 2.563-3.266 4.567-5.704 6.014-2.398 1.447-5.126 2.17-8.184 2.17zm-9.114-19.84h17.422c-.166-2.108-1.034-3.844-2.604-5.208-1.53-1.405-3.596-2.108-6.2-2.108-2.15 0-4.01.661-5.58 1.984-1.53 1.323-2.542 3.1-3.038 5.332zm43.329 18.848v-44.392h13.578c6.779 0 12.214 2.046 16.306 6.138 4.133 4.092 6.2 9.445 6.2 16.058 0 6.655-2.067 12.028-6.2 16.12-4.092 4.051-9.527 6.076-16.306 6.076zm5.704-38.936v33.48h7.874c5.167 0 9.238-1.467 12.214-4.402 2.976-2.976 4.464-7.089 4.464-12.338 0-5.208-1.488-9.3-4.464-12.276s-7.047-4.464-12.214-4.464zm48.903 39.928c-4.464 0-8.143-1.529-11.036-4.588s-4.34-6.923-4.34-11.594c0-4.629 1.405-8.473 4.216-11.532 2.811-3.1 6.407-4.65 10.788-4.65 4.505 0 8.081 1.467 10.726 4.402 2.687 2.893 4.03 6.965 4.03 12.214l-.062.62h-23.87c.083 2.976 1.075 5.373 2.976 7.192s4.175 2.728 6.82 2.728c3.637 0 6.489-1.819 8.556-5.456l5.084 2.48c-1.364 2.563-3.265 4.567-5.704 6.014-2.397 1.447-5.125 2.17-8.184 2.17zm-9.114-19.84h17.422c-.165-2.108-1.033-3.844-2.604-5.208-1.529-1.405-3.596-2.108-6.2-2.108-2.149 0-4.009.661-5.58 1.984-1.529 1.323-2.542 3.1-3.038 5.332zm42.865 18.848h-5.704l-12.276-30.38h6.2l8.928 23.56h.124l9.052-23.56h6.076zm28.854.992c-4.464 0-8.142-1.529-11.036-4.588-2.893-3.059-4.34-6.923-4.34-11.594 0-4.629 1.406-8.473 4.216-11.532 2.811-3.1 6.407-4.65 10.788-4.65 4.506 0 8.081 1.467 10.726 4.402 2.687 2.893 4.03 6.965 4.03 12.214l-.062.62h-23.87c.083 2.976 1.075 5.373 2.976 7.192 1.902 1.819 4.175 2.728 6.82 2.728 3.638 0 6.49-1.819 8.556-5.456l5.084 2.48c-1.364 2.563-3.265 4.567-5.704 6.014-2.397 1.447-5.125 2.17-8.184 2.17zm-9.114-19.84h17.422c-.165-2.108-1.033-3.844-2.604-5.208-1.529-1.405-3.596-2.108-6.2-2.108-2.149 0-4.009.661-5.58 1.984-1.529 1.323-2.542 3.1-3.038 5.332zm34.419-25.544v44.392h-5.704v-44.392zm4.911 29.202c0-4.671 1.468-8.535 4.402-11.594 2.976-3.059 6.717-4.588 11.222-4.588 4.506 0 8.226 1.529 11.16 4.588 2.976 3.059 4.464 6.923 4.464 11.594 0 4.712-1.488 8.577-4.464 11.594-2.934 3.059-6.654 4.588-11.16 4.588-4.505 0-8.246-1.529-11.222-4.588-2.934-3.059-4.402-6.923-4.402-11.594zm5.704 0c0 3.265.951 5.911 2.852 7.936 1.902 2.025 4.258 3.038 7.068 3.038 2.811 0 5.167-1.013 7.068-3.038 1.902-2.025 2.852-4.671 2.852-7.936 0-3.224-.95-5.849-2.852-7.874-1.942-2.067-4.298-3.1-7.068-3.1-2.769 0-5.125 1.033-7.068 3.1-1.901 2.025-2.852 4.65-2.852 7.874zm45.303 10.974c2.728 0 5.022-1.033 6.882-3.1 1.86-2.025 2.79-4.65 2.79-7.874 0-3.183-.93-5.807-2.79-7.874s-4.154-3.1-6.882-3.1c-2.77 0-5.084 1.033-6.944 3.1-1.819 2.067-2.728 4.691-2.728 7.874 0 3.224.909 5.869 2.728 7.936 1.86 2.025 4.174 3.038 6.944 3.038zm.93 5.208c-2.232 0-4.278-.475-6.138-1.426-1.819-.951-3.224-2.211-4.216-3.782h-.248l.248 4.216v13.392h-5.704v-43.772h5.456v4.216h.248c.992-1.571 2.397-2.831 4.216-3.782 1.86-.951 3.906-1.426 6.138-1.426 4.009 0 7.398 1.571 10.168 4.712 2.852 3.183 4.278 7.006 4.278 11.47 0 4.505-1.426 8.329-4.278 11.47-2.77 3.141-6.159 4.712-10.168 4.712zm33.31 0c-4.464 0-8.142-1.529-11.036-4.588-2.893-3.059-4.34-6.923-4.34-11.594 0-4.629 1.406-8.473 4.216-11.532 2.811-3.1 6.407-4.65 10.788-4.65 4.506 0 8.081 1.467 10.726 4.402 2.687 2.893 4.03 6.965 4.03 12.214l-.062.62h-23.87c.083 2.976 1.075 5.373 2.976 7.192 1.902 1.819 4.175 2.728 6.82 2.728 3.638 0 6.49-1.819 8.556-5.456l5.084 2.48c-1.364 2.563-3.265 4.567-5.704 6.014-2.397 1.447-5.125 2.17-8.184 2.17zm-9.114-19.84h17.422c-.165-2.108-1.033-3.844-2.604-5.208-1.529-1.405-3.596-2.108-6.2-2.108-2.149 0-4.009.661-5.58 1.984-1.529 1.323-2.542 3.1-3.038 5.332zm34.419 18.848h-5.704v-30.38h5.456v4.96h.248c.578-1.612 1.756-2.976 3.534-4.092 1.818-1.157 3.596-1.736 5.332-1.736 1.653 0 3.058.248 4.216.744l-1.736 5.518c-.703-.289-1.819-.434-3.348-.434-2.15 0-4.03.868-5.642 2.604-1.571 1.736-2.356 3.761-2.356 6.076zm72.941-20.398c0 6.2-1.839 11.139-5.518 14.818-4.133 4.381-9.569 6.572-16.306 6.572-6.448 0-11.904-2.232-16.368-6.696s-6.696-9.961-6.696-16.492 2.232-12.028 6.696-16.492 9.92-6.696 16.368-6.696c3.265 0 6.345.579 9.238 1.736s5.27 2.79 7.13 4.898l-4.092 4.092c-1.364-1.653-3.141-2.935-5.332-3.844-2.149-.951-4.464-1.426-6.944-1.426-4.836 0-8.928 1.674-12.276 5.022-3.307 3.389-4.96 7.626-4.96 12.71s1.653 9.321 4.96 12.71c3.348 3.348 7.44 5.022 12.276 5.022 4.423 0 8.101-1.24 11.036-3.72s4.629-5.89 5.084-10.23h-16.12v-5.332h21.514c.207 1.157.31 2.273.31 3.348zm10.432 20.398h-5.704v-30.38h5.456v4.96h.248c.578-1.612 1.756-2.976 3.534-4.092 1.818-1.157 3.596-1.736 5.332-1.736 1.653 0 3.058.248 4.216.744l-1.736 5.518c-.703-.289-1.819-.434-3.348-.434-2.15 0-4.03.868-5.642 2.604-1.571 1.736-2.356 3.761-2.356 6.076zm13.206-15.19c0-4.671 1.467-8.535 4.402-11.594 2.976-3.059 6.717-4.588 11.222-4.588s8.225 1.529 11.16 4.588c2.976 3.059 4.464 6.923 4.464 11.594 0 4.712-1.488 8.577-4.464 11.594-2.935 3.059-6.655 4.588-11.16 4.588s-8.246-1.529-11.222-4.588c-2.935-3.059-4.402-6.923-4.402-11.594zm5.704 0c0 3.265.951 5.911 2.852 7.936s4.257 3.038 7.068 3.038 5.167-1.013 7.068-3.038 2.852-4.671 2.852-7.936c0-3.224-.951-5.849-2.852-7.874-1.943-2.067-4.299-3.1-7.068-3.1s-5.125 1.033-7.068 3.1c-1.901 2.025-2.852 4.65-2.852 7.874zm57.083 15.19h-5.456v-4.216h-.248c-.868 1.488-2.212 2.728-4.03 3.72-1.778.992-3.638 1.488-5.58 1.488-3.72 0-6.593-1.054-8.618-3.162-1.984-2.149-2.976-5.187-2.976-9.114v-19.096h5.704v18.724c.124 4.96 2.624 7.44 7.502 7.44 2.273 0 4.174-.909 5.704-2.728 1.529-1.86 2.294-4.071 2.294-6.634v-16.802h5.704zm21.823-4.216c2.728 0 5.022-1.033 6.882-3.1 1.86-2.025 2.79-4.65 2.79-7.874 0-3.183-.93-5.807-2.79-7.874s-4.154-3.1-6.882-3.1c-2.769 0-5.084 1.033-6.944 3.1-1.818 2.067-2.728 4.691-2.728 7.874 0 3.224.91 5.869 2.728 7.936 1.86 2.025 4.175 3.038 6.944 3.038zm.93 5.208c-2.232 0-4.278-.475-6.138-1.426-1.818-.951-3.224-2.211-4.216-3.782h-.248l.248 4.216v13.392h-5.704v-43.772h5.456v4.216h.248c.992-1.571 2.398-2.831 4.216-3.782 1.86-.951 3.906-1.426 6.138-1.426 4.01 0 7.399 1.571 10.168 4.712 2.852 3.183 4.278 7.006 4.278 11.47 0 4.505-1.426 8.329-4.278 11.47-2.769 3.141-6.158 4.712-10.168 4.712zm42.618-9.424c0 2.645-1.157 4.877-3.472 6.696s-5.229 2.728-8.742 2.728c-3.059 0-5.745-.785-8.06-2.356-2.315-1.612-3.968-3.72-4.96-6.324l5.084-2.17c.744 1.819 1.819 3.245 3.224 4.278 1.447.992 3.017 1.488 4.712 1.488 1.819 0 3.327-.393 4.526-1.178 1.24-.785 1.86-1.715 1.86-2.79 0-1.943-1.488-3.369-4.464-4.278l-5.208-1.302c-5.911-1.488-8.866-4.34-8.866-8.556 0-2.769 1.116-4.981 3.348-6.634 2.273-1.695 5.167-2.542 8.68-2.542 2.687 0 5.105.641 7.254 1.922 2.191 1.281 3.72 2.997 4.588 5.146l-5.084 2.108c-.579-1.281-1.529-2.273-2.852-2.976-1.281-.744-2.728-1.116-4.34-1.116-1.488 0-2.831.372-4.03 1.116-1.157.744-1.736 1.653-1.736 2.728 0 1.736 1.633 2.976 4.898 3.72l4.588 1.178c6.035 1.488 9.052 4.526 9.052 9.114z" fill="#676c72"/><path d="m295.22 328.608h5.952l-11.842 44.392h-5.828l-9.548-29.264h-.248l-9.548 29.264h-5.828l-12.338-44.392h5.952l9.362 34.906h.248l9.61-28.954h5.332l9.61 28.954h.248zm12.08 35.092c0 1.488.62 2.728 1.86 3.72 1.281.992 2.769 1.488 4.464 1.488 2.397 0 4.526-.889 6.386-2.666 1.901-1.777 2.852-3.865 2.852-6.262-1.778-1.405-4.258-2.108-7.44-2.108-2.315 0-4.258.558-5.828 1.674-1.53 1.116-2.294 2.501-2.294 4.154zm7.378-22.072c4.216 0 7.543 1.137 9.982 3.41 2.438 2.232 3.658 5.311 3.658 9.238v18.724h-5.456v-4.216h-.248c-2.356 3.472-5.498 5.208-9.424 5.208-3.348 0-6.159-.992-8.432-2.976-2.232-1.984-3.348-4.464-3.348-7.44 0-3.141 1.178-5.642 3.534-7.502 2.397-1.86 5.58-2.79 9.548-2.79 3.389 0 6.179.62 8.37 1.86v-1.302c0-1.984-.786-3.658-2.356-5.022-1.571-1.405-3.41-2.108-5.518-2.108-3.183 0-5.704 1.343-7.564 4.03l-5.022-3.162c2.769-3.968 6.861-5.952 12.276-5.952zm25.777 31.372h-5.704v-30.38h5.456v4.96h.248c.579-1.612 1.757-2.976 3.534-4.092 1.819-1.157 3.596-1.736 5.332-1.736 1.654 0 3.059.248 4.216.744l-1.736 5.518c-.702-.289-1.818-.434-3.348-.434-2.149 0-4.03.868-5.642 2.604-1.57 1.736-2.356 3.761-2.356 6.076zm38.859-8.432c0 2.645-1.158 4.877-3.472 6.696-2.315 1.819-5.229 2.728-8.742 2.728-3.059 0-5.746-.785-8.06-2.356-2.315-1.612-3.968-3.72-4.96-6.324l5.084-2.17c.744 1.819 1.818 3.245 3.224 4.278 1.446.992 3.017 1.488 4.712 1.488 1.818 0 3.327-.393 4.526-1.178 1.24-.785 1.86-1.715 1.86-2.79 0-1.943-1.488-3.369-4.464-4.278l-5.208-1.302c-5.911-1.488-8.866-4.34-8.866-8.556 0-2.769 1.116-4.981 3.348-6.634 2.273-1.695 5.166-2.542 8.68-2.542 2.686 0 5.104.641 7.254 1.922 2.19 1.281 3.72 2.997 4.588 5.146l-5.084 2.108c-.579-1.281-1.53-2.273-2.852-2.976-1.282-.744-2.728-1.116-4.34-1.116-1.488 0-2.832.372-4.03 1.116-1.158.744-1.736 1.653-1.736 2.728 0 1.736 1.632 2.976 4.898 3.72l4.588 1.178c6.034 1.488 9.052 4.526 9.052 9.114zm9.421-.868c0 1.488.62 2.728 1.86 3.72 1.282.992 2.77 1.488 4.464 1.488 2.398 0 4.526-.889 6.386-2.666 1.902-1.777 2.852-3.865 2.852-6.262-1.777-1.405-4.257-2.108-7.44-2.108-2.314 0-4.257.558-5.828 1.674-1.529 1.116-2.294 2.501-2.294 4.154zm7.378-22.072c4.216 0 7.544 1.137 9.982 3.41 2.439 2.232 3.658 5.311 3.658 9.238v18.724h-5.456v-4.216h-.248c-2.356 3.472-5.497 5.208-9.424 5.208-3.348 0-6.158-.992-8.432-2.976-2.232-1.984-3.348-4.464-3.348-7.44 0-3.141 1.178-5.642 3.534-7.502 2.398-1.86 5.58-2.79 9.548-2.79 3.39 0 6.18.62 8.37 1.86v-1.302c0-1.984-.785-3.658-2.356-5.022-1.57-1.405-3.41-2.108-5.518-2.108-3.182 0-5.704 1.343-7.564 4.03l-5.022-3.162c2.77-3.968 6.862-5.952 12.276-5.952zm62.496.992-9.796 30.38h-5.828l-7.564-23.312-7.502 23.312h-5.766l-9.796-30.38h5.952l6.758 22.94h.062l7.502-22.94h5.89l7.502 22.94h.062l6.696-22.94z" fill="#676c72"/><rect fill="#fabb08" height="52.2617" rx="26.1308" transform="matrix(.8660254 -.5 .5 .8660254 -17.492725 198.352263)" width="157.6" x="361.384" y="131.818"/><rect fill="#e94336" height="52.2617" rx="26.1308" transform="matrix(.8660254 -.5 .5 .8660254 -15.418397 100.057158)" width="157.6" x="179" y="78.7997"/><rect fill="#00a150" height="52.2617" rx="26.1308" transform="matrix(.8660254 .5 -.5 .8660254 51.917166 -193.7575)" width="157.6" x="387.515"/><rect fill="#4283f3" height="52.2617" rx="26.1308" transform="matrix(.8660254 .5 -.5 .8660254 54.014336 -95.464848)" width="157.6" x="205.147" y="53.0597"/></svg>